<?xml version="1.0" encoding="iso-8859-1"?>
<!-- Generator: Adobe Illustrator 19.0.0, SVG Export Plug-In . SVG Version: 6.00 Build 0)  -->
<svg version="1.1" id="Capa_1" xmlns="http://www.w3.org/2000/svg" xmlns:xlink="http://www.w3.org/1999/xlink" x="0px" y="0px"
	 viewBox="0 0 480 480" style="enable-background:new 0 0 480 480;" xml:space="preserve">
<g>
	<g>
		<path d="M440.596,133.44l-6.792,20.36l-78.968,28.72l-27.2-34l-7.592-38.12c-0.634-3.164-3.108-5.638-6.272-6.272l-23.944-4.8
			c-12.997-2.601-25.642,5.827-28.243,18.824c-0.036,0.178-0.069,0.357-0.101,0.536l-0.752,4.232l-102.728,29.392
			c-3.871,1.109-6.315,4.923-5.704,8.904l15.384,100l-13.136,13.136l11.312,11.312l16-16c1.301-1.309,2.109-3.027,2.288-4.864
			l7.464-74.672L252.084,172l-11.48,65.048l-51.944,81.6L82.404,288.312c-3.1-0.889-6.431,0.171-8.448,2.688l-32,40l12.496,10
			l16.608-20.8l125.944,55.128c3.316,1.453,7.194,0.498,9.456-2.328l61.68-77.104l44.864,59.864l39.584,118.768
			c1.091,3.277,4.162,5.483,7.616,5.472h48v-16H390.54l-30.544-129.832c-0.223-0.929-0.608-1.812-1.136-2.608l-54.72-82.072
			l12.864-38.656l29.792,27.088c2.934,2.667,7.379,2.783,10.448,0.272l88-72c1.152-0.972,1.999-2.255,2.44-3.696h0.112l8-24
			L440.596,133.44z M269.156,167.296l34.928,31.752l-13.008,39.024l-1.136,0.8l-32.456-5.432L269.156,167.296z M181.908,176.336
			c-3.104,0.93-5.34,3.64-5.664,6.864l-1.728,17.24l-5.328-34.688l88.456-25.272l-2.448,13.872L181.908,176.336z M197.804,358.208
			L81.412,307.296l1.712-2.136l106.88,30.528c3.406,0.976,7.048-0.404,8.952-3.392l10.848-17.096l13.976,10.48L197.804,358.208z
			 M233.804,313.2l-15.368-11.52l33.68-52.92l29.328,4.888L233.804,313.2z M344.748,339.24L374.1,464h-8.128l-38.176-114.528
			c-0.274-0.816-0.677-1.583-1.192-2.272l-8.64-11.52l16.272-12.208L344.748,339.24z M325.348,310.144l-16.984,12.736l-29.76-39.68
			l-0.8,0.592l16.352-20.432L325.348,310.144z M352.476,221.44l-80-72.76l4.8-27.2c0.771-4.35,4.923-7.252,9.273-6.481
			c0.058,0.01,0.116,0.021,0.174,0.033l18.72,3.744l6.96,34.768c0.249,1.256,0.798,2.434,1.6,3.432l32,40
			c2.144,2.68,5.759,3.694,8.984,2.52l43.792-15.928L352.476,221.44z"/>
	</g>
</g>
<g>
	<g>
		<path d="M320.204,0h-24c-17.673,0-32,14.327-32,32v24c0,17.673,14.327,32,32,32c17.673,0,32-14.327,32-32V8
			C328.204,3.582,324.622,0,320.204,0z M312.204,56c0,8.837-7.163,16-16,16s-16-7.163-16-16v-8h32V56z M312.204,32h-32
			c0-8.837,7.163-16,16-16h16V32z"/>
	</g>
</g>
<g>
	<g>
		<rect x="136.204" y="16" width="64" height="16"/>
	</g>
</g>
<g>
	<g>
		<rect x="104.204" y="16" width="16" height="16"/>
	</g>
</g>
<g>
	<g>
		<rect x="248.204" y="400" width="64" height="16"/>
	</g>
</g>
<g>
	<g>
		<rect x="216.204" y="400" width="16" height="16"/>
	</g>
</g>
<g>
	<g>
		<rect x="56.204" y="128" width="32" height="16"/>
	</g>
</g>
<g>
	<g>
		<rect x="24.204" y="128" width="16" height="16"/>
	</g>
</g>
<g>
	<g>
		<rect x="120.204" y="232" width="24" height="16"/>
	</g>
</g>
<g>
	<g>
		<rect x="384.204" y="112" width="32" height="16"/>
	</g>
</g>
<g>
</g>
<g>
</g>
<g>
</g>
<g>
</g>
<g>
</g>
<g>
</g>
<g>
</g>
<g>
</g>
<g>
</g>
<g>
</g>
<g>
</g>
<g>
</g>
<g>
</g>
<g>
</g>
<g>
</g>
</svg>
